<svg xmlns="http://www.w3.org/2000/svg" aria-hidden="true" style="position:absolute;width:0;height:0;overflow:hidden">
  <defs>
    <symbol id="icon-arrowUpRight" viewBox="0 0 28 32">
      <path d="M24.137 3.149a1.882 1.882 0 0 0-2.126-1.602L5.235 3.905a1.883 1.883 0 0 0 .524 3.728l14.912-2.096 2.096 14.912a1.882 1.882 0 1 0 3.728-.524L24.137 3.149zM3.386 31.604l20.391-27.06-3.007-2.266L.379 29.338l3.007 2.266z"/>
    </symbol>
    <symbol id="icon-feCheck" viewBox="0 0 40 32">
      <path d="m5 11-5 5 15 15L40 6l-5-5-20 20L5 11z"/>
    </symbol>
    <symbol id="icon-people" viewBox="0 0 34 32">
      <path d="m23.754 25.201-.856 3.193L.545 22.405l.856-3.193s1.711-6.387 12.888-3.392 9.465 9.381 9.465 9.381zM22.23 8.536a5.785 5.785 0 1 0-11.174-2.994A5.785 5.785 0 0 0 22.23 8.536zm3.14 10.253a8.8 8.8 0 0 1 1.578 7.268l-.856 3.193 6.387 1.711.856-3.193s1.553-5.796-7.964-8.979zm2.349-14.772a5.603 5.603 0 0 0-3.334.116 8.269 8.269 0 0 1-2.49 9.293 5.606 5.606 0 0 0 2.829 1.768 5.787 5.787 0 0 0 6.508-8.481 5.788 5.788 0 0 0-3.513-2.696z"/>
    </symbol>
    <symbol id="icon-question" viewBox="0 0 19 32">
      <path d="M4.706 10c0-2.206 1.688-4 3.765-4h1.882c2.076 0 3.765 1.794 3.765 4v.225c0 1.363-.653 2.631-1.729 3.362l-2.482 1.694c-.729.498-1.328 1.182-1.744 1.99s-.633 1.714-.633 2.635V20c0 1.106.841 2 1.882 2s1.882-.894 1.882-2v-.088c0-.512.247-.987.647-1.262l2.482-1.694c2.153-1.475 3.459-4.006 3.459-6.731V10c0-4.419-3.371-8-7.529-8H8.471C4.312 2 .942 5.581.942 10c0 1.106.841 2 1.882 2s1.882-.894 1.882-2zm4.706 20c.624 0 1.223-.263 1.664-.732s.689-1.105.689-1.768-.248-1.299-.689-1.768S10.036 25 9.412 25s-1.223.263-1.664.732c-.441.469-.689 1.105-.689 1.768s.248 1.299.689 1.768S8.788 30 9.412 30z"/>
    </symbol>
    <symbol id="icon-ellipse" viewBox="0 0 36 32">
<path d="M34 16c0 8.837-7.163 16-16 16s-16-7.163-16-16c0-8.837 7.163-16 16-16s16 7.163 16 16z"></path>
</symbol>
<symbol id="icon-burger" viewBox="0 0 31 32">
<path stroke-linejoin="miter" stroke-linecap="round" stroke-miterlimit="4" stroke-width="1.2929" d="M7.273 9.536h16.485M7.273 21.172h16.485M7.273 15.354h16.485"></path>
</symbol>
<symbol id="icon-x" viewBox="0 0 32 32">
<path stroke-linejoin="round" stroke-linecap="round" stroke-miterlimit="4" stroke-width="2.5" d="M24 8l-16 16"></path>
<path stroke-linejoin="round" stroke-linecap="round" stroke-miterlimit="4" stroke-width="2.5" d="M8 8l16 16"></path>
</symbol>

<symbol id="icon-circle" viewBox="0 0 32 32">
<path fill="#fbfbfb" style="fill: var(--color1, #fbfbfb)" d="M32 16c0 8.837-7.163 16-16 16s-16-7.163-16-16c0-8.837 7.163-16 16-16s16 7.163 16 16z"></path>
<path  d="M26.666 16c0 5.891-4.776 10.667-10.667 10.667s-10.667-4.776-10.667-10.667c0-5.891 4.776-10.667 10.667-10.667s10.667 4.776 10.667 10.667z"></path>
</symbol>
<symbol id="icon-favorite" viewBox="0 0 38 32">
<path  stroke-linejoin="round" stroke-linecap="round" stroke-miterlimit="4" stroke-width="2.9091" d="M32.839 4.355c-0.805-0.805-1.76-1.444-2.812-1.88s-2.179-0.66-3.318-0.66-2.266 0.224-3.318 0.66c-1.052 0.436-2.007 1.075-2.812 1.88l-1.67 1.67-1.67-1.67c-1.626-1.626-3.831-2.539-6.13-2.539s-4.504 0.913-6.13 2.539c-1.626 1.626-2.539 3.831-2.539 6.13s0.913 4.504 2.539 6.13l13.93 13.93 13.93-13.93c0.805-0.805 1.444-1.76 1.88-2.812s0.66-2.179 0.66-3.318-0.224-2.266-0.66-3.318c-0.436-1.052-1.075-2.007-1.88-2.812z"></path>
</symbol>
<symbol id="icon-star" viewBox="0 0 34 32">
<path stroke-linejoin="miter" stroke-linecap="butt" stroke-miterlimit="4" stroke-width="2.56" d="M20.906 10.021c0.34 0.643 0.958 1.093 1.675 1.217l8.106 1.4-5.733 5.904c-0.507 0.522-0.743 1.249-0.64 1.969l1.171 8.144-7.383-3.629-0.25-0.106c-0.508-0.18-1.063-0.18-1.571 0l-0.25 0.106-7.385 3.629 1.173-8.144c0.104-0.72-0.133-1.447-0.64-1.969l-5.735-5.904 8.108-1.4c0.717-0.124 1.335-0.573 1.675-1.217l3.84-7.277 3.84 7.277z"></path>
</symbol>
<symbol id="icon-vLine" viewBox="0 0 4 32">
<path  stroke-linejoin="miter" stroke-linecap="butt" stroke-miterlimit="4" stroke-width="2" d="M2 0v32"></path>
</symbol>
  </defs>
</svg>
