<svg xmlns="http://www.w3.org/2000/svg" aria-hidden="true" style="position:absolute;width:0;height:0;overflow:hidden">
  <defs>
    <symbol id="icon-arrowUpRight" viewBox="0 0 28 32">
      <path d="M24.137 3.149a1.882 1.882 0 0 0-2.126-1.602L5.235 3.905a1.883 1.883 0 0 0 .524 3.728l14.912-2.096 2.096 14.912a1.882 1.882 0 1 0 3.728-.524L24.137 3.149zM3.386 31.604l20.391-27.06-3.007-2.266L.379 29.338l3.007 2.266z"/>
    </symbol>
    <symbol id="icon-feCheck" viewBox="0 0 40 32">
      <path d="m5 11-5 5 15 15L40 6l-5-5-20 20L5 11z"/>
    </symbol>
    <symbol id="icon-people" viewBox="0 0 34 32">
      <path d="m23.754 25.201-.856 3.193L.545 22.405l.856-3.193s1.711-6.387 12.888-3.392 9.465 9.381 9.465 9.381zM22.23 8.536a5.785 5.785 0 1 0-11.174-2.994A5.785 5.785 0 0 0 22.23 8.536zm3.14 10.253a8.8 8.8 0 0 1 1.578 7.268l-.856 3.193 6.387 1.711.856-3.193s1.553-5.796-7.964-8.979zm2.349-14.772a5.603 5.603 0 0 0-3.334.116 8.269 8.269 0 0 1-2.49 9.293 5.606 5.606 0 0 0 2.829 1.768 5.787 5.787 0 0 0 6.508-8.481 5.788 5.788 0 0 0-3.513-2.696z"/>
    </symbol>
    <symbol id="icon-question" viewBox="0 0 19 32">
      <path d="M4.706 10c0-2.206 1.688-4 3.765-4h1.882c2.076 0 3.765 1.794 3.765 4v.225c0 1.363-.653 2.631-1.729 3.362l-2.482 1.694c-.729.498-1.328 1.182-1.744 1.99s-.633 1.714-.633 2.635V20c0 1.106.841 2 1.882 2s1.882-.894 1.882-2v-.088c0-.512.247-.987.647-1.262l2.482-1.694c2.153-1.475 3.459-4.006 3.459-6.731V10c0-4.419-3.371-8-7.529-8H8.471C4.312 2 .942 5.581.942 10c0 1.106.841 2 1.882 2s1.882-.894 1.882-2zm4.706 20c.624 0 1.223-.263 1.664-.732s.689-1.105.689-1.768-.248-1.299-.689-1.768S10.036 25 9.412 25s-1.223.263-1.664.732c-.441.469-.689 1.105-.689 1.768s.248 1.299.689 1.768S8.788 30 9.412 30z"/>
    </symbol>
    <symbol id="icon-ellipse" viewBox="0 0 36 32">
<path d="M34 16c0 8.837-7.163 16-16 16s-16-7.163-16-16c0-8.837 7.163-16 16-16s16 7.163 16 16z"></path>
</symbol>
  </defs>
</svg>
