<?xml version="1.0" encoding="UTF-8"?>
<svg id="_Слой_1" data-name="Слой 1" xmlns="http://www.w3.org/2000/svg" viewBox="0 0 125.45 160.62">
  <defs>
    <style>
      .cls-1 {
        fill: #d0dbbb;
      }

      .cls-2 {
        fill: #798d5b;
      }

      .cls-3 {
        fill: none;
        stroke: #7f8c5d;
        stroke-linecap: round;
        stroke-linejoin: round;
        stroke-width: 1.5px;
      }
    </style>
  </defs>
  <path class="cls-1" d="M53.57,157.58c-.26-.17-.5-.37-.71-.61-.72-.78-1.08-1.82-1.38-2.84-2.67-9.08-2.92-16.46-4.64-25.79-.64-3.45-1.55-6.53-2.42-9.94-.52-2.04-1.46-2.38-3.32-2.14-4.99,.67-10.01,1.06-15.04,1.06-4.91,0-7.74-2.77-8-7.73-.13-2.44-.07-4.88,.71-7.19,.67-1.97,.47-3.69-.79-5.24-1.34-1.63-1.32-3.19-.1-4.81,.62-.83,.98-1.46-.31-2.13-1.9-1-2.2-2.62-1.24-4.5,.17-.33,.29-.69,.41-1.04,1.4-3.98,1.39-4.02-2.65-5.36-5.19-1.73-6.2-4.78-2.57-8.88,4.91-5.55,11.75-10.34,13.75-17.74,1.52-5.6,2-11.46,3.26-17.11,4.83-21.76,20.54-25.08,31.58-26.24,8.25-.87,16.43-.6,24.81-.6,24.69,0,39.96,30.11,40.49,42.83,.59,14.15-5.16,25.84-14.37,36.13-4.96,5.54-9.61,9.64-10.37,17.43-.62,6.34,.54,12.32,.95,18.62,.23,3.53,1.75,7.25,2.65,10.64,1.26,4.74,4.93,8.37-1.12,12.84-5.31,3.92-14.45,7.47-21.78,9.25-7.33,1.78-15.69,2.06-23.17,2.07-1.6,0-3.34-.14-4.63-.99Z"/>
  <g>
    <path class="cls-3" d="M46.33,159.87c-2.24-7.6-6.44-30.86-7.7-35.82-.56-2.2-1.58-2.58-3.58-2.31-5.39,.72-10.81,1.14-16.25,1.15-5.31,0-8.36-5.97-8.64-11.33-.14-2.63-.07-5.28,.77-7.77,.72-2.13,.51-3.99-.86-5.66-1.45-1.76-1.42-3.44-.1-5.19,.67-.89,1.06-1.57-.33-2.3-2.06-1.08-2.38-2.83-1.34-4.86,.18-.36,.31-.74,.45-1.12,1.52-4.3,1.5-4.34-2.87-5.8-5.6-1.87-6.7-5.17-2.78-9.6,3.73-4.22,7.72-8.19,11.73-12.12,2.52-2.47,3.29-6.2,3.85-9.55,.68-4.03,2.28-17.01,2.75-19.44C27.35-2.41,59.43,.31,66.69,1.26c70.17,9.17,34.92,49.33,5.65,45.27-7.21-1-15.98-4.37-16.72-12.79-1.33-15.06,16.85-13.77,21.68-13.31,18.31,1.73,23.14,17.66,21.94,27.54-2.11,17.27-25.82,14.07-38.11,23.1-8.76,6.44-3.59,17.02,6.86,17.24"/>
    <g>
      <path class="cls-3" d="M82.85,63.28c-.74,4.22-1.44,7.98,.48,11.81,1.61,3.22,4.84,5.35,8.22,6.59"/>
      <path class="cls-3" d="M54.86,65.28c-1.67-.23-3.24-1.37-3.97-2.89-1.75-3.63,.58-7.14,2.21-8.05,7.38-4.12,15.33,4.5,18.1,10.68"/>
      <path class="cls-3" d="M77.39,32.06c-.72-1.39-2.15-2.41-3.71-2.53-1.56-.12-3.18,.72-3.89,2.11-1.04,2.01-.04,4.55,1.6,6.1,1.64,1.55,3.8,2.4,5.79,3.47,1.99,1.07,3.96,2.54,4.66,4.68"/>
      <path class="cls-3" d="M99.25,63.25c.56,1.11,.85,2.37,.65,3.6-.2,1.22-.92,2.39-2.01,2.97-1.35,.72-2.97,.48-4.49,.49-2.04,.02-4.12,.56-5.73,1.82s-2.66,3.3-2.46,5.33"/>
      <path class="cls-3" d="M46.73,43.95c.27,2.9,2.68,3.81,3.81,4.11,1.13,.3,4.96,.91,4.19,5.29"/>
      <path class="cls-3" d="M60.32,85.7c-.48-2.03-.08-5.1,1.41-6.56,4.67-4.58,11.22-1.35,11.75,2.33"/>
      <path class="cls-3" d="M99.42,46.44c.54-.37,1.21-.53,1.86-.59,3.27-.29,7.34-.29,8.56,4.14,.56,2.04-1.19,5.58-4.38,5.64"/>
      <path class="cls-2" d="M69.98,73.32c.63-1.87,2.1-3.45,3.93-4.21,.52-.21,1.02,2.63,.13,5.26-.55,1.61-2.1,3.45-3.67,4.17-.92-1.48-.93-3.59-.39-5.22Z"/>
      <path class="cls-2" d="M102.65,69.86c1.87,.63,3.45,2.1,4.21,3.93,.21,.52-2.63,1.02-5.26,.13-1.61-.55-3.45-2.1-4.17-3.67,1.48-.92,3.59-.93,5.22-.39Z"/>
      <path class="cls-2" d="M107.57,41.99c.63-1.87,2.1-3.45,3.93-4.21,.52-.21,1.02,2.63,.13,5.26-.55,1.61-2.1,3.45-3.67,4.17-.92-1.48-.93-3.59-.39-5.22Z"/>
      <path class="cls-2" d="M70.62,56.77c.99-1.71,2.74-2.97,4.68-3.36,.55-.11,.48,2.78-.91,5.18-.85,1.47-2.74,2.97-4.41,3.37-.62-1.63-.21-3.71,.65-5.19Z"/>
      <path class="cls-2" d="M46.61,48.64c1.8-.81,3.96-.8,5.75,.03,.51,.23-1.24,2.54-3.78,3.66-1.56,.69-3.96,.8-5.55,.13,.46-1.68,2.01-3.12,3.57-3.82Z"/>
      <path class="cls-2" d="M54.16,57.59c1.8-.81,3.96-.8,5.75,.03,.51,.23-1.24,2.54-3.78,3.66-1.56,.69-3.96,.8-5.55,.14,.46-1.68,2.01-3.12,3.57-3.82Z"/>
      <path class="cls-2" d="M53.8,75.25c1.75,.93,3.06,2.64,3.51,4.56,.13,.55-2.76,.58-5.21-.74-1.5-.81-3.06-2.64-3.51-4.3,1.61-.67,3.7-.33,5.21,.47Z"/>
      <path class="cls-2" d="M66.97,31.59c1.75,.93,3.06,2.64,3.51,4.56,.13,.55-2.76,.58-5.21-.74-1.5-.81-3.06-2.64-3.51-4.3,1.61-.67,3.7-.33,5.21,.47Z"/>
      <path class="cls-2" d="M54.97,20.45c1.98,.04,3.92,.97,5.19,2.48,.36,.43-2.21,1.76-4.98,1.7-1.7-.04-3.92-.97-5.07-2.25,1.13-1.32,3.15-1.97,4.86-1.93Z"/>
      <path class="cls-2" d="M89.62,54.58c-.54-1.9-.23-4.03,.85-5.69,.3-.47,2.33,1.59,3.09,4.26,.46,1.64,.23,4.04-.66,5.51-1.6-.69-2.8-2.43-3.28-4.08Z"/>
      <path class="cls-2" d="M87.09,20.06c.09-1.98,1.07-3.89,2.61-5.13,.44-.35,1.71,2.25,1.57,5.02-.08,1.7-1.07,3.9-2.37,5.02-1.3-1.17-1.89-3.2-1.81-4.91Z"/>
      <path class="cls-2" d="M77.99,36.26c1.8-.81,3.96-.8,5.75,.03,.51,.23-1.24,2.54-3.78,3.66-1.56,.69-3.96,.8-5.55,.13,.46-1.68,2.01-3.12,3.57-3.82Z"/>
    </g>
  </g>
</svg>